<svg width="612" height="612" viewBox="0 0 612 612" fill="none" xmlns="http://www.w3.org/2000/svg">
<g opacity="0.1">
<path d="M587.8 278.1C587.6 280.7 587.4 283.3 587.2 286C582.2 350.1 557.3 405.3 513.2 451.8C485.2 481.4 451.8 502.8 413 515.7C394.2 521.9 374.9 525.7 355.1 526.9C325.9 528.8 297.3 525.8 269.4 516.8C229.1 503.9 195.5 481.2 170.4 446.8C154.9 425.6 144.7 402 139.3 376.4C135.6 358.8 134 341 135.2 323C136.5 303.8 141.6 285.5 149.8 268.1C160.7 245.1 176 225.6 196.5 210.4C214.6 197 234.7 188.7 257.1 186.3C282.4 183.6 307.1 186.3 330.3 197.5C360.2 211.9 378.2 235.8 384.4 268.3C385.6 274.5 385.8 281 386.4 287.4C386.5 288 386.5 288.6 386.5 289.3C389.3 289.3 391.7 288.3 393.8 286.6C398.1 283.1 400.6 278.4 402.4 273.3C408.8 255.1 407.6 237.2 400.5 219.5C393.9 203 383.5 189.2 370.5 177.2C347.4 156 320.3 142.9 289.5 137.4C263.4 132.7 237.7 134.8 212.4 142.3C172.1 154.2 138.8 176.8 111.4 208.3C85.5004 238.2 68.7004 272.8 60.1004 311.3C55.1004 333.7 53.4004 356.3 54.5004 379.2C56.6004 421.6 68.3004 461.5 87.2004 499.4C98.8004 522.6 112.7 544.2 128.9 564.5C129.2 564.9 129.5 565.3 129.5 566C127.4 564.2 125.3 562.4 123.3 560.5C92.8004 532.8 68.0004 500.8 50.5004 463.4C39.6004 440.1 32.1004 415.8 27.9004 390.4C25.0004 372.4 23.7004 354.4 24.2004 336.2C25.1004 305.9 31.1004 276.7 42.3004 248.6C60.1004 203.6 87.8004 165.8 125.9 135.8C150.9 116.1 178.7 101.9 209.4 93.3001C231.2 87.2001 253.4 84.4001 276 84.7001C312.3 85.3001 346.8 93.2001 378.7 110.7C425.8 136.6 456.8 175.5 470.7 227.6C476.1 247.7 478.2 268.2 476.7 289C474.7 317.3 465.2 343.1 449.2 366.5C435.6 386.4 418.3 402.2 396.8 413.2C382.9 420.3 368.2 424.6 352.7 426.1C331.7 428 311 426.2 291.2 418.7C257.2 406 236 382 227.9 346.6C226.3 339.5 225.6 332.2 225.5 324.9C225.5 324.3 225.4 323.6 225.4 322.9C223 322.8 221.1 323.6 219.2 324.8C216.4 326.6 214.3 329.2 212.7 332.1C208.8 338.8 206.9 346.1 206 353.6C203.3 375.2 209.9 394.4 221.7 412.1C234.8 431.6 252.3 446.3 272.8 457.5C290.1 466.9 308.5 473 327.9 475.7C345.1 478.1 362.2 477.7 379.3 474.6C426.2 466 464.9 442.9 496.8 407.9C525.8 376.1 544 338.7 552.6 296.6C557.6 272 558.8 247.3 556.6 222.3C553.4 186.1 543.3 151.9 527.8 119.2C515.6 93.5001 500.6 69.7001 482.9 47.5001C482.6 47.1001 482.3 46.7001 482 46.1001C482.3 46.3001 482.6 46.4001 482.9 46.6001C529.3 87.0001 562.5 135.8 578.5 195.7C583.3 213.5 586.1 231.6 587.2 250C587.4 253 587.6 256.1 587.8 259.1C587.8 265.4 587.8 271.7 587.8 278.1Z" fill="#E2E4E8"/>
</g>
<path d="M280.1 561.2C274.6 555.8 268.9 550 263 544.5C257.7 539.5 251.8 535.2 245.3 531.7C244.1 531 243.4 530.1 243.4 528.8C243.3 523.1 242.7 517.5 241.7 511.9C240.4 505.3 238.7 498.9 236 492.7C235.1 490.7 233.9 489.2 232.1 487.9C221.8 480.1 213.2 470.7 207.3 459.1C206.1 456.8 205.2 454.3 203.8 452.2C202.3 450 200.6 447.8 198.5 446C190.9 439.6 182 435.6 172.4 433C163.9 430.7 155.3 429.1 146.5 428.7C139.9 428.4 133.6 429.9 127.3 431.3C126.1 431.6 125 431.9 123.8 432C122.5 432.1 121.4 431.7 120.8 430.5C117.8 424.5 113.4 419.6 109.1 414.6C102.4 407 95.6998 399.4 87.7998 393.2C86.9998 392.6 86.2998 392 85.5998 391.3C100.8 399 113.8 409.3 123.5 423.6C125.5 423 127.6 422.3 129.7 421.7C135.4 420 141.3 419.8 147.1 419.7C155.8 419.5 164.4 420.3 172.9 422.1C184.2 424.5 193.9 429.9 202 438C208.8 444.8 216.6 450.1 225.1 454.4C229.3 456.5 233.8 458 238.6 457.7C241.7 457.5 243 455.9 242.3 452.9C242 451.5 241.3 450.2 240.6 449C232.7 436.6 221.6 427.4 209.9 418.9C203.5 414.2 196.9 409.8 189.7 406.3C176 399.5 162.1 393.4 147.4 389C134.3 385.1 121.2 381.5 108.4 376.6C104 374.9 99.5998 373 95.3998 371C89.5998 368.3 83.6998 365.8 78.1998 362.5C67.4998 356 58.6998 347.3 52.3998 336.3C50.7998 333.4 49.2998 330.5 47.6998 327.6C47.3998 327.1 47.2998 326.6 47.0998 326C46.6998 324.7 47.0998 323.6 48.0998 322.8C49.0998 322 50.2998 321.9 51.3998 322.7C51.7998 323 52.1998 323.2 52.4998 323.6C65.8998 337.3 81.9998 346.1 100.6 350.3C104.6 351.2 108.8 351.6 112.9 352.1C113.9 352.2 114.9 351.8 115.9 351.6C117 351.3 117.3 350.5 116.8 349.6C116.4 348.8 115.9 348.1 115.3 347.5C107.8 340.5 99.2998 334.7 90.7998 329C80.7998 322.3 72.0998 314.1 64.6998 304.6C60.3998 299.1 57.7998 292.8 56.5998 285.9C56.3998 284.8 56.3998 283.6 56.4998 282.5C56.5998 279.1 59.4998 277.5 62.5998 278.8C65.7998 280.1 68.9998 281.4 72.2998 282.2C74.3998 282.7 76.6998 282.5 78.8998 282.2C82.0998 281.6 83.1998 279.5 82.0998 276.5C81.4998 274.7 80.4998 273 79.1998 271.6C77.1998 269.5 74.9998 267.5 72.4998 265.9C46.0998 249.4 28.5998 226.4 21.0998 196.1C19.7998 191 19.2998 185.7 19.2998 180.5C19.2998 177.2 20.5998 173.8 21.4998 170.5C21.9998 168.7 23.3998 168.1 24.7998 168.4C26.2998 168.7 26.9998 169.7 27.1998 171.1C28.2998 181.4 33.2998 189.8 39.3998 197.7C42.5998 201.9 46.2998 205.7 50.7998 208.5C52.3998 209.5 54.2998 210.4 56.0998 210.9C59.2998 211.8 61.1998 210.1 60.6998 206.8C60.3998 204.8 59.6998 202.9 58.8998 201.1C54.3998 190.8 50.8998 180.1 48.7998 169C45.2998 149.7 45.6998 130.7 52.6998 112.2C56.9998 101.4 63.0998 92 72.0998 84.6C73.1998 83.7 74.4998 82.9 75.8998 82.3C78.0998 81.4 79.9998 82.7 80.0998 85.1C80.0998 86.8 79.9998 88.6 79.8998 90.4C79.4998 115.2 83.8998 139.3 93.0998 162.3C114.8 216.3 152.5 255.6 204.2 281.6C208.9 284 213.9 285.9 218.7 288.1C219.8 288.6 220.8 289.4 221.9 289.9C223.7 290.8 224 292.4 224.2 294.2C226 314.9 232.3 334.2 242.5 352.2C247.9 361.7 253.3 371.2 259.6 380.1C263 384.9 266.1 390 268.9 395.2C274.6 405.7 278 416.7 278 428.8C278 438.3 275.3 447 271.8 455.5C268.1 464.6 263 473 257.2 480.9C254.9 484 252.8 487.1 250.5 490.2C249.7 491.2 249.7 492.2 249.8 493.5C250.4 498.6 251.1 503.7 251.4 508.9C251.7 514.4 251.7 519.9 251.8 525.4C251.8 525.9 252.1 526.6 252.5 527C254 528.4 255.8 529.5 257.2 531C260.5 534.4 263.9 537.8 266.7 541.6C271.4 547.9 275.6 554.5 280 560.9C280.1 561.2 280.2 561.4 280.1 561.2Z" fill="#E2E4E8"/>
<path d="M488.4 423.6C498.1 409.3 511.1 398.9 526.4 391.3C524.4 393 522.3 394.6 520.3 396.4C513.1 402.6 507 409.8 500.8 416.9C497.1 421.1 493.6 425.4 491.1 430.4C490.3 431.9 488.8 432.3 486.6 431.9C482.4 431 478.2 430.1 474 429.3C468.1 428.2 462.2 428.8 456.3 429.6C447.9 430.7 439.6 432.5 431.7 435.5C424 438.4 416.7 442.2 410.9 448.2C409.6 449.6 408.4 451.2 407.7 452.9C401.6 466.3 393.1 477.9 381.3 486.6C376.7 490 374.9 494.5 373.3 499.4C370.5 508.2 368.7 517.1 368.6 526.4C368.6 527.3 368.5 528.1 368.4 529C368.3 530.2 367.7 531.1 366.6 531.7C359.3 535.6 352.8 540.6 346.8 546.4C341.6 551.4 336.5 556.6 331.2 561.8C333 559 334.7 556.4 336.4 553.7C340.6 547.1 345.3 541 350.5 535.1C352.4 533 354.5 531 356.8 529.4C359.1 527.7 360.2 525.9 360.1 522.9C359.8 513.4 360.4 503.9 361.9 494.6C362.3 492.2 361.4 490.6 360.2 488.9C353.3 479.4 346.3 470 341.5 459.1C337.8 450.7 334.5 442 334 432.6C333.6 425.3 334.2 418 336.4 411.1C338.1 405.9 340 400.6 342.7 395.9C347.2 388 352.5 380.5 357.3 372.8C365.7 359.2 374.2 345.5 379.6 330.3C383.7 318.8 386.9 307 387.6 294.7C387.8 291.3 389.8 289.7 392.5 288.5C399.6 285.2 406.8 282.3 413.6 278.6C458 254.9 491.6 220.7 513.4 175.1C522.5 156 528.3 135.8 530.8 114.8C531.9 105.5 532.4 96.1 531.9 86.7C531.9 86.1 531.8 85.5 531.9 84.8C532.1 82.7 533.8 81.6 535.8 82.2C536.9 82.6 538 83.1 538.9 83.9C547.2 90.3 553 98.6 557.3 108C563 120.5 565.2 133.7 565.1 147.4C565 166 560.6 183.6 553.2 200.6C552.4 202.5 551.6 204.4 551.2 206.4C550.4 210.1 552.5 212 556.1 210.8C558.2 210.1 560.4 209.1 562.1 207.8C572.8 199.6 580.1 189 583.9 176C584.3 174.6 584.4 173.2 584.6 171.7C584.9 169.8 585.7 168.6 587.1 168.4C588.6 168.2 589.8 168.9 590.5 170.7C591.8 174.4 592.9 178.1 592.7 182.1C592.2 195.2 588.5 207.4 582.6 218.9C572.4 238.9 557.9 255 538.4 266.5C535.2 268.4 532.6 271.1 530.7 274.4C530.2 275.2 529.9 276.1 529.7 277C529 279.7 530 281.4 532.7 282.2C535.9 283.1 539.2 282.7 542.3 281.8C544.7 281.1 546.9 280.1 549.2 279.1C552.6 277.5 555.7 279.2 555.5 283C555.3 288.6 553.8 293.8 551.1 298.7C546.8 306.4 540.8 312.5 534.5 318.6C528.7 324.2 521.8 328.5 515.3 333.1C509.9 337 504.5 341.1 499.2 345.2C497.8 346.3 496.5 347.6 495.5 349.1C494.4 350.6 494.8 351.5 496.7 351.9C499.9 352.6 503.2 352.1 506.4 351.5C523 348.4 538 341.7 551.3 331.2C554.1 329 556.6 326.4 559.2 324C559.7 323.6 560.1 323.1 560.6 322.8C561.7 322 562.8 322 563.9 322.8C565 323.6 565.4 324.8 565 326.1C564.6 327.4 564 328.6 563.5 329.8C555.8 345.3 544.5 357.5 529 365.4C520.5 369.7 511.6 373.4 502.7 377C489.7 382.2 476.1 385.6 462.7 389.7C450.5 393.5 438.8 398.6 427.2 404C411.8 411.2 398.3 421.2 385.7 432.5C379.9 437.6 375.1 443.7 371 450.1C370.2 451.3 370 452.9 369.8 454.4C369.7 456.4 370.9 457.5 372.9 457.8C377.2 458.3 381.3 457.2 385.2 455.4C393.1 451.7 400.4 447.1 406.9 441.2C410.8 437.6 414.7 434 419 430.9C426 425.8 434 422.8 442.6 421.6C449.3 420.7 456.1 420 462.9 419.8C470.9 419.5 477.1 419.6 488.4 423.6Z" fill="#E2E4E8"/>
<path d="M385.5 127.6C385.3 139.6 380.8 149.9 373.1 158.9C364.1 169.6 353.2 178.2 341.5 185.7C337.3 188.4 332.9 190.8 328.6 193.2C327.6 193.8 327.3 194.4 327.3 195.5C327.5 201.2 328 206.8 330.2 212.2C331.8 216 334.1 219.2 337.1 222C340.4 225.1 344.6 225.3 348.8 224.7C355.2 223.8 361.6 222.3 368 221.4C374.7 220.4 381.4 219.6 388.1 219C389.7 218.8 391.5 219.3 393 220C396.6 221.5 397.8 224.9 396.9 229.2C396.1 232.7 394.4 235.7 392.3 238.6C388.1 244.3 383.2 249.4 377.9 254.1C369.4 261.7 360.1 268.1 350.1 273.5C342.7 277.5 334.8 279.7 326.3 280C318.9 280.3 311.9 278.9 304.8 277.1C299.4 275.8 294 274.2 288.6 273.3C283.5 272.4 278.4 272.7 273.5 275C269.9 276.7 267.3 279.4 265.5 282.8C264.8 284.1 263.9 285.1 262.3 285C260.3 284.8 259.3 283.1 259.5 281C259.9 277.2 260.4 273.4 260.5 269.6C260.6 267.6 260.1 265.5 259.4 263.6C257.1 256.5 251.7 253.3 244.6 252.3C241.1 251.8 237.8 253.1 234.4 253.4C233.4 253.5 232.4 253.6 231.5 253.6C229.7 253.6 228.4 252.7 228.3 251.2C228.1 249.6 229.2 248.4 231 248.1C233.3 247.7 235.6 247.3 237.9 247C244.9 245.9 251.1 242.9 257.3 239.7C261.5 237.5 265.1 234.7 267.7 230.7C268.5 229.5 269.1 228.2 269.7 226.9C270.7 224.6 270.5 222.5 269 220.4C264.8 214.8 262.2 208.4 261.2 201.5C260.4 196.3 260.8 191.1 262.6 186.1C264.1 181.8 267 178.6 271 176.6C276.6 173.8 282.4 171.3 288.2 168.8C300.6 163.4 313 158 324.8 151.3C331.8 147.4 338.4 142.9 344 137.1C348.8 132.1 352.2 126.2 352.2 119.1C352.2 109.7 346.9 101.8 336 101.4C327.7 101.1 320.5 103.8 314.4 109.3C314 109.6 313.7 110 313.3 110.4C311.8 111.7 310.3 111.7 309.1 110.6C308 109.5 308 107.9 309.2 106.4C309.8 105.7 310.4 105 311 104.3C315.1 99.1999 319.2 94.0999 324.5 90.0999C331.5 84.7999 339.3 82.8999 348 84.8999C355.8 86.5999 362.5 90.3999 368.8 95.0999C373.6 98.6999 378.1 102.5 380.9 107.9C382.5 111.1 383.7 114.6 384.5 118C384.9 120.8 385 124.2 385.5 127.6Z" fill="#E2E4E8"/>
<path d="M376.3 327.1C372.5 329.9 368.5 331.7 364.1 332.2C358.8 332.8 353.5 333.1 348.2 333C338.4 332.7 329 330.3 319.9 327C315.6 325.4 311.4 323.4 307.2 321.5C306.3 321.1 305.7 321 304.8 321.5C293.6 327.4 281.7 330.9 269.2 332.7C261.7 333.8 254.2 333.4 246.7 332.1C242.8 331.4 239.2 329.7 235.7 327.2C237.1 326.9 238.4 326.8 239.5 326.5C244.8 325.1 250.2 323.9 255.4 322.2C268.5 318 280.8 312.1 291.7 303.5C296.6 299.7 301.5 296 304.9 290.6C305.5 289.7 306.2 289.6 306.9 290.5C315.6 301.9 327.3 309.3 340 315.5C349.1 320 358.6 323.2 368.4 325.7C370.9 326.4 373.5 326.7 376.3 327.1Z" fill="#E2E4E8"/>
</svg>
