<svg version="1.0" xmlns="http://www.w3.org/2000/svg" width="20px" height="20px" viewBox="0 0 85.000000 89.000000" fill="currentColor" preserveAspectRatio="xMidYMid meet" class="w-5 h-5"><g transform="translate(0.000000,89.000000) scale(0.100000,-0.100000)" stroke="none"><path d="M248 873 c-22 -3 -43 -12 -51 -23 -7 -10 -30 -21 -52 -24 -58 -10
        -68 -22 -62 -78 5 -41 3 -48 -14 -53 -26 -8 -59 -62 -59 -95 0 -14 7 -36 16
        -48 21 -31 90 -65 115 -57 32 10 123 -40 136 -76 6 -16 18 -29 27 -29 11 0 16
        -13 18 -52 2 -43 7 -55 25 -63 12 -5 27 -20 34 -32 11 -21 9 -27 -19 -56 -41
        -42 -41 -72 -1 -96 17 -11 39 -33 50 -50 31 -52 43 -46 125 63 27 36 44 69 44
        86 0 34 17 49 65 57 62 10 115 93 115 182 0 24 11 47 39 82 22 28 42 62 46 78
        8 39 -10 79 -42 93 -16 7 -39 20 -52 30 -13 10 -37 18 -53 18 -16 0 -46 9 -68
        20 -22 11 -46 20 -53 20 -14 0 -39 31 -62 75 -14 26 -50 31 -67 8 -8 -11 -27
        -18 -50 -19 -29 -1 -38 4 -47 22 -11 25 -17 26 -103 17z m74 -55 c3 -29 6 -33
        28 -30 14 1 42 4 64 5 24 2 44 10 52 22 16 21 15 22 38 -27 9 -20 22 -41 29
        -45 12 -7 17 -9 49 -11 9 -1 23 -9 32 -17 8 -8 33 -17 55 -19 22 -2 52 -11 66
        -20 14 -9 36 -21 50 -26 37 -14 32 -53 -15 -116 -28 -37 -40 -63 -40 -86 0
        -66 -46 -158 -78 -158 -28 0 -99 -37 -106 -55 -3 -9 -6 -28 -6 -41 0 -14 -5
        -30 -10 -37 -34 -41 -70 -91 -70 -98 0 -5 -5 -9 -11 -9 -6 0 -9 7 -5 15 4 11
        -9 24 -40 44 l-46 28 42 35 c35 31 40 40 34 63 -4 14 -13 29 -20 32 -8 3 -14
        11 -14 19 0 8 -9 14 -20 14 -19 0 -26 18 -22 60 3 31 -9 58 -28 63 -13 3 -20
        14 -20 29 0 18 -11 28 -50 45 -32 14 -50 28 -50 39 0 12 -5 15 -22 9 -45 -14
        -78 -17 -78 -7 0 5 -10 12 -22 16 -13 3 -29 14 -36 26 -17 27 7 75 42 84 30 7
        45 50 27 78 -6 10 -7 18 -1 18 5 0 7 7 4 15 -5 11 1 15 25 15 17 0 31 -4 31
        -10 0 -14 37 -12 47 3 4 6 6 20 5 30 -2 12 3 17 20 17 13 0 30 5 38 10 24 15
        29 12 32 -22z"></path></g></svg>