<svg version="1.0" xmlns="http://www.w3.org/2000/svg" width="20px" height="20px" viewBox="0 0 75.000000 117.000000" fill="currentColor" preserveAspectRatio="xMidYMid meet" class="w-5 h-5"><g transform="translate(0.000000,117.000000) scale(0.100000,-0.100000)" stroke="none"><path d="M363 1153 c-12 -2 -27 -11 -33 -19 -7 -8 -21 -14 -31 -14 -10 0 -24
        -9 -31 -20 -7 -11 -19 -20 -27 -20 -22 0 -71 -51 -71 -74 0 -12 -7 -30 -15
        -40 -8 -11 -15 -30 -15 -42 0 -13 -25 -47 -65 -88 -64 -64 -66 -67 -56 -101 5
        -19 7 -44 4 -55 -6 -22 21 -60 42 -60 7 0 9 -13 7 -34 -5 -45 30 -72 83 -62
        33 7 35 6 35 -22 0 -16 -9 -37 -20 -47 -26 -24 -25 -37 5 -73 15 -19 21 -33
        15 -37 -32 -20 30 -112 87 -129 14 -5 20 -12 16 -21 -3 -8 9 -32 26 -54 17
        -21 31 -44 31 -50 0 -6 12 -18 28 -28 15 -10 33 -26 40 -35 15 -21 52 -24 70
        -6 18 18 14 55 -6 70 -24 17 -38 68 -19 68 18 0 63 50 72 80 13 44 26 53 43
        29 11 -16 21 -19 41 -14 40 10 71 33 71 53 0 10 11 29 25 42 18 17 25 34 25
        61 0 43 -11 54 -63 63 -31 6 -48 20 -99 82 -33 40 -67 74 -74 74 -8 0 -15 9
        -15 20 -4 62 -3 82 3 86 4 3 15 20 24 39 15 33 15 38 -4 88 -12 28 -24 70 -28
        92 -4 22 -11 46 -17 53 -6 8 -6 17 2 26 16 20 10 87 -9 96 -8 4 -25 12 -37 18
        -13 7 -26 11 -30 11 -5 -1 -18 -4 -30 -6z m62 -91 c-13 -30 -13 -38 -2 -56 8
        -12 17 -39 21 -61 9 -48 27 -105 39 -122 10 -13 -18 -72 -36 -77 -7 -2 -26 -7
        -42 -13 -44 -14 -71 1 -78 44 -6 34 -4 37 44 91 16 19 18 26 8 38 -7 8 -24 14
        -38 12 -21 -2 -27 -9 -29 -33 -2 -17 -17 -43 -33 -59 -32 -31 -38 -70 -14 -96
        15 -17 11 -50 -6 -50 -5 0 -9 -15 -9 -34 0 -25 -6 -38 -26 -51 -14 -9 -27 -15
        -28 -13 -12 15 -35 91 -31 99 12 18 -38 9 -55 -11 -24 -28 -48 -17 -42 19 2
        16 -1 38 -7 49 -11 22 -9 26 37 64 11 9 22 14 25 12 2 -2 10 2 17 11 10 12 10
        15 -1 15 -8 0 -5 8 8 23 11 12 24 33 29 47 39 108 162 206 241 192 22 -4 22
        -5 8 -40z m19 -399 c11 -62 15 -69 38 -70 13 -1 28 -10 35 -20 7 -10 18 -24
        24 -32 9 -10 9 -15 -1 -21 -16 -10 -4 -30 19 -30 10 0 29 -11 42 -24 14 -13
        42 -27 62 -31 34 -7 38 -10 35 -34 -4 -35 -91 -80 -121 -62 -26 17 -42 1 -79
        -76 -16 -35 -35 -63 -43 -63 -16 0 -66 -25 -61 -31 9 -9 13 -69 5 -69 -5 0
        -17 16 -26 35 -9 19 -20 35 -25 35 -4 0 -8 13 -8 28 0 21 -7 32 -24 40 -29 13
        -96 71 -96 83 0 5 11 9 25 9 18 0 26 7 31 26 7 28 -8 45 -36 42 -20 -2 -50 12
        -50 23 0 5 11 14 24 19 21 8 24 14 19 48 -4 33 -2 41 22 56 17 11 30 14 38 8
        7 -6 30 -7 52 -3 38 6 39 7 20 21 -22 16 -32 55 -16 64 5 4 12 2 16 -4 3 -5
        10 -10 15 -10 14 0 21 32 9 46 -15 18 -3 34 25 34 20 0 25 -7 30 -37z m-310
        -77 c-3 -9 -10 -16 -15 -16 -14 0 -11 28 4 33 16 6 19 3 11 -17z m488 -281 c0
        -5 -5 -11 -11 -13 -6 -2 -11 4 -11 13 0 9 5 15 11 13 6 -2 11 -8 11 -13z"></path></g></svg>