<svg version="1.0" xmlns="http://www.w3.org/2000/svg" width="20px" height="20px" viewBox="0 0 98.000000 106.000000" fill="currentColor" preserveAspectRatio="xMidYMid meet" class="w-5 h-5"><g transform="translate(0.000000,106.000000) scale(0.100000,-0.100000)" stroke="none"><path d="M205 1051 c-11 -5 -26 -6 -33 -3 -7 2 -24 -6 -38 -19 -20 -18 -23
        -29 -18 -54 3 -16 10 -34 15 -39 16 -18 9 -34 -18 -45 -16 -6 -41 -19 -58 -29
        -26 -17 -30 -25 -30 -65 0 -25 -6 -52 -13 -59 -18 -18 -15 -29 15 -60 31 -33
        50 -35 92 -11 39 23 58 9 40 -30 -10 -23 -9 -30 4 -45 10 -10 17 -27 17 -38 0
        -25 27 -64 45 -64 28 0 62 -49 57 -81 l-5 -31 -91 5 c-76 5 -96 3 -121 -12
        -29 -17 -30 -20 -27 -81 3 -44 -1 -74 -14 -101 -16 -36 -16 -40 -1 -57 10 -10
        17 -28 17 -40 0 -24 35 -52 64 -52 11 0 30 -10 43 -22 24 -22 25 -22 54 -5 17
        9 46 17 65 17 63 0 124 65 124 134 l0 31 13 -25 c7 -14 23 -26 35 -28 48 -7
        70 44 32 71 -18 13 -19 16 -5 27 8 7 15 23 15 36 0 23 3 24 40 18 26 -4 45 -2
        55 6 14 11 15 3 9 -71 -6 -71 -4 -87 10 -98 17 -15 69 -9 93 10 16 14 18 90 2
        106 -7 7 -7 13 0 17 5 4 15 -2 21 -13 5 -11 27 -28 48 -37 41 -19 72 -43 72
        -56 0 -4 -20 -8 -44 -8 -49 0 -69 -17 -64 -52 2 -16 19 -31 60 -52 67 -34 68
        -33 125 52 20 32 45 63 55 70 26 19 23 58 -8 79 -14 10 -38 28 -54 40 -15 13
        -33 23 -40 23 -7 0 -29 19 -50 42 l-37 42 21 17 c12 10 35 19 51 21 58 6 94
        122 49 159 -8 7 -38 13 -67 14 -52 2 -72 17 -30 23 40 6 46 25 33 99 -16 82
        -52 122 -111 123 -19 0 -44 7 -55 15 -37 28 -94 14 -94 -25 0 -9 -18 -24 -46
        -35 -25 -10 -53 -29 -62 -40 l-17 -22 -18 24 c-10 12 -25 23 -33 23 -8 0 -14
        6 -14 14 0 7 -16 33 -35 58 -29 39 -33 51 -28 81 5 30 0 43 -27 77 -32 40 -47
        46 -85 31z m25 -60 c-10 -19 -8 -21 20 -21 33 0 38 -14 15 -44 -19 -25 -19
        -36 0 -36 8 0 20 -10 26 -22 6 -13 20 -33 31 -45 11 -12 17 -26 14 -31 -3 -6
        1 -13 10 -16 8 -3 12 -10 9 -16 -4 -6 5 -10 19 -10 30 0 33 -15 9 -42 -15 -17
        -15 -21 -3 -29 13 -8 13 -10 0 -19 -8 -5 -31 -10 -50 -11 -41 -1 -66 -5 -97
        -14 -13 -4 -23 -3 -23 3 0 14 26 33 40 30 7 -2 15 3 18 11 3 8 0 11 -7 7 -6
        -4 -20 -1 -32 7 -13 9 -16 17 -10 22 6 3 11 15 11 26 0 10 6 19 14 19 8 0 16
        10 18 23 4 30 -14 67 -32 64 -9 -1 -16 8 -18 23 -2 14 -8 30 -13 36 -19 24 -6
        101 19 107 24 5 25 2 12 -22z m-55 -149 c3 -8 0 -21 -6 -28 -6 -8 -9 -25 -7
        -38 7 -33 -2 -45 -50 -66 -50 -23 -68 -11 -47 31 10 18 11 30 5 34 -14 9 -12
        46 3 44 27 -3 37 2 37 19 0 22 56 26 65 4z m468 -23 c15 -17 25 -19 60 -14 51
        8 71 -9 81 -68 4 -21 9 -44 12 -51 3 -7 -14 -20 -41 -32 l-45 -20 31 -37 c29
        -36 34 -38 73 -32 32 5 45 3 56 -10 10 -12 10 -19 2 -27 -7 -7 -12 -20 -12
        -29 0 -20 -20 -29 -61 -29 -19 0 -29 -5 -29 -15 0 -8 -9 -19 -20 -25 -11 -6
        -20 -18 -20 -28 0 -20 90 -122 107 -122 7 0 16 -6 20 -13 4 -6 25 -21 46 -31
        20 -11 37 -24 37 -30 0 -6 -5 -5 -12 2 -7 7 -17 12 -24 12 -18 0 -26 -30 -13
        -46 9 -11 7 -20 -5 -39 -22 -33 -26 -32 -19 8 4 29 0 39 -32 70 -21 21 -44 37
        -52 37 -18 0 -101 77 -108 101 -11 33 -51 35 -91 4 -32 -24 -39 -26 -75 -17
        -35 9 -41 8 -54 -11 -8 -12 -15 -32 -15 -45 0 -16 -8 -26 -27 -33 -39 -13 -75
        -67 -62 -91 6 -12 6 -18 -1 -18 -5 0 -10 -6 -10 -14 0 -23 -55 -56 -92 -56
        -18 0 -43 -7 -55 -15 -21 -15 -23 -14 -39 10 -12 19 -23 25 -38 21 -25 -6 -47
        10 -39 30 3 8 0 21 -7 29 -9 11 -10 22 -2 42 15 40 21 108 11 124 -20 32 77
        44 198 24 35 -6 36 -3 48 70 5 33 2 44 -14 59 -11 10 -17 24 -14 31 3 9 -9 17
        -36 25 -61 16 -50 46 16 42 27 -2 33 1 33 18 0 17 3 19 19 11 14 -8 22 -7 31
        4 7 8 19 15 26 15 8 0 19 11 24 25 6 17 20 27 40 32 20 4 30 11 29 22 -4 42 3
        53 44 71 24 11 52 17 64 14 23 -6 37 17 28 47 -8 25 6 24 28 -2z m3 -546 c-7
        -17 -8 -17 -17 0 -12 21 -2 44 13 29 6 -6 8 -19 4 -29z m11 -68 c4 -25 -9 -44
        -29 -45 -10 0 -10 64 -1 74 13 12 26 0 30 -29z m183 -112 c0 -27 -2 -28 -46
        -7 -41 20 -38 29 10 29 31 0 36 -3 36 -22z"></path></g></svg>