<svg version="1.0" xmlns="http://www.w3.org/2000/svg" width="20px" height="20px" viewBox="0 0 98.000000 98.000000" fill="currentColor" preserveAspectRatio="xMidYMid meet" class="w-5 h-5"><g transform="translate(0.000000,98.000000) scale(0.100000,-0.100000)" stroke="none"><path d="M19 954 c-10 -13 -10 -23 0 -57 7 -23 15 -55 18 -70 3 -16 12 -31 19
        -34 8 -3 14 -11 14 -17 0 -23 57 -68 78 -62 16 5 20 2 20 -19 0 -14 8 -35 18
        -46 24 -27 117 -69 153 -69 16 0 40 -9 54 -20 14 -11 34 -20 46 -20 11 0 28
        -11 37 -25 19 -29 92 -75 117 -75 22 0 22 -2 -13 -57 -37 -58 -42 -134 -11
        -167 10 -12 31 -44 45 -72 27 -52 45 -71 104 -112 62 -43 102 -12 102 80 0 36
        -6 54 -26 77 -14 17 -32 31 -40 31 -23 0 -16 14 15 31 18 11 31 28 36 48 5 24
        12 31 29 31 24 0 56 28 56 48 0 7 6 12 13 12 26 0 47 36 47 78 0 22 -5 44 -11
        47 -6 5 -3 13 10 22 25 17 27 45 6 63 -8 7 -15 23 -15 36 0 29 -31 50 -87 58
        -23 3 -53 11 -65 17 -23 10 -76 76 -90 112 -6 14 -16 18 -45 15 -33 -3 -38 -7
        -41 -30 -3 -23 -8 -28 -30 -28 -15 0 -39 -6 -54 -14 -15 -8 -42 -17 -60 -21
        -18 -4 -43 -18 -55 -33 -19 -22 -24 -24 -38 -12 -12 10 -14 23 -9 57 5 32 2
        48 -9 61 -8 9 -22 32 -31 50 -11 22 -24 32 -40 32 -12 0 -33 12 -47 26 -19 21
        -30 25 -58 20 -19 -3 -48 1 -69 9 -45 19 -76 19 -93 -1z m83 -35 c11 -6 40
        -11 65 -12 37 0 47 -4 55 -23 12 -26 34 -38 43 -24 11 19 24 10 36 -25 7 -19
        17 -35 21 -35 5 0 8 -21 7 -48 -2 -46 14 -87 36 -96 24 -9 67 8 77 30 7 15 20
        24 34 24 l23 0 -19 -42 c-27 -58 -25 -65 13 -61 47 5 62 -8 49 -45 -7 -21 -7
        -33 1 -41 6 -6 9 -13 6 -15 -6 -6 -33 16 -52 43 -9 13 -28 25 -42 27 -14 1
        -38 12 -55 24 -18 13 -38 19 -49 15 -28 -9 -146 56 -144 80 2 20 -18 64 -39
        87 -20 21 -37 49 -56 90 -18 40 -42 58 -42 32 0 -8 12 -37 26 -65 14 -28 23
        -56 21 -62 -2 -7 -11 5 -20 26 -10 20 -24 52 -32 71 -8 19 -15 39 -15 45 0 14
        25 14 52 0z m553 -201 c25 -12 45 -26 45 -30 0 -14 -48 -8 -53 6 -7 18 -72 37
        -94 29 -11 -4 -14 -2 -9 5 11 19 61 14 111 -10z m-52 -54 c-3 -8 2 -23 11 -33
        15 -16 32 -18 136 -17 l120 2 0 -28 c0 -24 -4 -28 -28 -28 -16 0 -37 7 -48 15
        -22 17 -70 20 -79 5 -3 -5 -14 -10 -24 -10 -10 0 -24 -7 -31 -15 -7 -8 -28
        -15 -46 -15 -32 0 -33 1 -31 37 2 32 -2 40 -30 57 -43 28 -41 44 5 48 46 4 53
        1 45 -18z m177 11 c24 -7 24 -8 5 -16 -11 -4 -36 -8 -55 -8 -19 1 -29 3 -22 6
        6 2 12 10 12 17 0 14 21 14 60 1z m-113 -21 c-3 -3 -12 -4 -19 -1 -8 3 -5 6 6
        6 11 1 17 -2 13 -5z m170 0 c-3 -3 -12 -4 -19 -1 -8 3 -5 6 6 6 11 1 17 -2 13
        -5z m-102 -124 c4 -6 14 -5 27 3 16 9 22 9 25 0 3 -8 22 -13 46 -13 56 0 71
        -12 72 -55 2 -32 -1 -37 -27 -42 -23 -4 -28 -10 -25 -25 7 -24 -30 -47 -39
        -24 -11 30 -58 -5 -48 -36 7 -23 -11 -55 -35 -63 -20 -6 -35 -44 -26 -67 3 -8
        21 -22 40 -32 32 -17 35 -23 35 -62 0 -72 -5 -76 -55 -43 -28 19 -56 51 -76
        87 -18 31 -41 68 -51 81 -21 28 -23 45 -4 38 16 -6 17 24 1 35 -12 9 21 74 41
        82 16 6 18 49 4 76 -8 16 -8 18 5 14 8 -4 15 -2 15 3 0 15 40 53 55 53 8 0 17
        -4 20 -10z m-140 -40 c-3 -5 -12 -7 -20 -3 -21 7 -19 13 6 13 11 0 18 -4 14
        -10z"></path></g></svg>