<svg version="1.0" xmlns="http://www.w3.org/2000/svg" width="20px" height="20px" viewBox="0 0 42.000000 103.000000" fill="currentColor" preserveAspectRatio="xMidYMid meet" class="w-5 h-5"><g transform="translate(0.000000,103.000000) scale(0.100000,-0.100000)" stroke="none"><path d="M78 995 c-36 -25 -37 -25 -31 -80 3 -32 1 -60 -5 -67 -6 -8 -11 -77
        -11 -175 -1 -89 -5 -172 -10 -185 -10 -28 -2 -159 12 -176 7 -9 6 -20 -3 -37
        -11 -21 -11 -27 2 -42 8 -10 13 -24 11 -31 -3 -8 6 -37 20 -65 14 -29 27 -60
        31 -70 3 -9 14 -20 23 -23 10 -3 30 -12 44 -20 17 -9 39 -12 60 -8 69 13 78
        47 24 88 -40 31 -41 37 -16 90 14 30 16 45 9 61 -15 34 36 141 74 154 18 6 34
        22 43 43 7 19 23 42 34 52 29 27 26 62 -8 97 -29 28 -29 29 -9 40 17 9 19 18
        15 49 -5 41 -43 100 -64 100 -9 0 -11 9 -7 30 5 24 1 35 -24 59 -16 17 -32 37
        -36 46 -3 9 -19 20 -34 26 -16 5 -39 23 -51 39 -26 36 -45 37 -93 5z m65 -35
        c3 -10 23 -27 46 -37 26 -11 41 -24 41 -35 0 -10 6 -18 13 -18 15 0 37 -37 35
        -60 -3 -36 3 -50 22 -50 11 0 20 -7 20 -15 0 -8 3 -15 8 -15 4 0 12 -11 18
        -24 10 -21 8 -28 -13 -48 -33 -31 -49 -60 -28 -52 8 4 15 2 15 -3 0 -6 12 -15
        26 -21 18 -9 24 -19 22 -35 -2 -18 -9 -22 -36 -22 -23 0 -31 -4 -27 -13 19
        -50 17 -62 -11 -72 -15 -6 -33 -9 -40 -6 -8 3 -14 -5 -16 -22 -2 -19 -8 -26
        -20 -24 -13 2 -16 -6 -16 -44 0 -32 -6 -50 -19 -60 -17 -13 -17 -15 5 -33 l22
        -20 -20 -35 c-11 -20 -17 -42 -14 -50 6 -16 -23 -49 -37 -41 -5 4 -9 13 -9 21
        0 8 -7 14 -16 14 -8 0 -13 4 -10 9 4 5 1 11 -6 13 -9 3 -12 35 -13 106 0 75
        -3 102 -12 102 -12 0 -19 40 -15 85 1 11 5 99 8 195 3 96 8 176 12 177 4 2 6
        31 5 65 -1 48 3 65 15 75 24 18 39 16 45 -7z m82 -889 c17 -10 16 -10 -10 -5
        -32 7 -47 22 -38 37 3 4 10 2 16 -6 7 -8 21 -20 32 -26z"></path></g></svg>