<svg version="1.0" xmlns="http://www.w3.org/2000/svg" width="20px" height="20px" viewBox="0 0 107.000000 100.000000" fill="currentColor" preserveAspectRatio="xMidYMid meet" class="w-5 h-5"><g transform="translate(0.000000,100.000000) scale(0.100000,-0.100000)" stroke="none"><path d="M925 983 c-67 -14 -127 -37 -135 -54 -9 -15 -14 -17 -29 -7 -11 6
        -26 8 -37 3 -21 -8 -68 -16 -98 -16 -31 0 -76 -28 -86 -54 -5 -14 -16 -25 -23
        -25 -7 0 -26 -18 -43 -39 -37 -51 -78 -59 -115 -25 -14 13 -29 24 -33 24 -5 0
        -21 11 -38 25 -34 29 -65 31 -116 9 -61 -26 -67 -30 -70 -50 -2 -11 -13 -24
        -25 -29 -15 -7 -23 -20 -25 -41 -2 -18 -12 -40 -23 -50 -21 -19 -26 -73 -7
        -92 9 -9 9 -15 0 -24 -17 -17 -15 -43 4 -59 13 -11 23 -9 62 13 77 42 98 43
        133 8 24 -24 30 -36 25 -56 -4 -14 -3 -30 1 -37 13 -21 11 -91 -4 -138 -27
        -88 16 -164 107 -190 25 -6 62 -25 82 -41 43 -33 52 -34 70 -9 7 10 28 20 45
        23 27 4 36 0 49 -19 11 -18 23 -23 42 -21 23 3 28 8 30 37 2 19 14 48 28 64
        13 16 24 35 24 43 0 8 11 19 25 24 14 5 25 14 25 20 0 5 11 10 24 10 13 0 35
        9 49 20 14 11 34 20 45 20 33 0 42 21 33 78 -4 28 -13 58 -20 66 -27 32 -31
        76 -11 109 32 52 33 56 17 81 -9 13 -13 33 -10 44 3 14 -2 25 -16 34 -15 9
        -21 23 -21 49 0 32 7 44 51 83 28 25 56 46 61 46 20 0 88 62 88 80 0 10 -14
        30 -31 44 -29 25 -56 30 -104 19z m83 -50 c15 -14 7 -35 -11 -31 -7 2 -22 -7
        -35 -20 -12 -12 -31 -22 -42 -22 -13 0 -24 -10 -30 -25 -9 -23 -21 -30 -44
        -26 -5 1 -6 -4 -3 -12 4 -10 -1 -13 -19 -9 -20 4 -21 6 -9 19 18 18 19 43 2
        43 -19 0 -16 33 5 55 16 16 18 17 18 2 0 -23 17 -22 24 1 4 11 26 25 54 34 49
        15 68 13 90 -9z m-378 -113 c0 -5 7 -10 15 -10 8 0 15 -4 15 -10 0 -12 -13
        -13 -24 -2 -4 4 -12 8 -17 8 -19 3 -20 4 -14 14 3 6 10 10 16 10 5 0 9 -4 9
        -10z m-352 -47 c7 -7 18 -13 23 -13 5 0 22 -14 38 -31 25 -26 35 -30 61 -24
        19 4 36 2 46 -6 8 -6 17 -9 20 -6 9 9 41 -27 36 -40 -2 -8 4 -13 17 -13 12 0
        21 -6 21 -15 0 -8 5 -15 10 -15 6 0 10 7 10 15 0 17 11 19 25 6 16 -14 59 -21
        75 -11 15 9 25 80 11 80 -5 0 -12 8 -15 17 -4 10 -4 14 0 10 4 -4 13 -2 21 5
        11 8 12 7 7 -6 -4 -11 -1 -16 10 -16 9 0 15 5 14 12 -2 6 5 14 14 16 13 2 16
        -1 12 -12 -4 -12 -1 -16 12 -14 11 0 33 0 50 0 25 -2 30 -6 29 -24 -1 -12 4
        -34 12 -48 7 -14 13 -29 13 -34 0 -5 7 -18 17 -28 15 -17 15 -18 -6 -18 -18 0
        -21 -4 -16 -21 7 -19 -7 -38 -26 -39 -16 0 -19 53 -4 70 15 16 15 20 -2 46
        -18 29 -65 45 -62 21 4 -34 -2 -56 -14 -51 -8 3 -20 -2 -27 -11 -11 -13 -11
        -18 -1 -25 9 -5 10 -10 2 -14 -6 -4 -11 -2 -11 3 0 6 -10 9 -22 7 -13 -3 -26
        -5 -29 -5 -4 -1 -19 -20 -35 -43 -19 -27 -25 -43 -17 -45 7 -2 9 -11 6 -19 -3
        -8 -1 -14 5 -12 18 5 73 -36 67 -49 -6 -18 5 -43 19 -43 6 0 13 12 14 27 1 15
        8 31 16 35 7 4 17 28 20 53 6 34 11 45 26 45 19 0 30 -19 30 -51 0 -15 6 -19
        22 -17 16 2 24 -3 26 -17 2 -11 13 -30 25 -42 25 -28 21 -33 -39 -41 -26 -4
        -49 -13 -52 -20 -2 -7 2 -10 11 -6 12 4 14 0 10 -15 -3 -12 -10 -21 -15 -21
        -6 0 -26 -14 -45 -30 -18 -17 -38 -30 -43 -30 -4 0 -14 -16 -20 -35 -6 -19
        -21 -40 -32 -46 -16 -9 -19 -18 -15 -45 7 -40 0 -44 -13 -9 -8 22 -15 24 -65
        24 -43 -1 -58 -5 -69 -20 -11 -16 -15 -17 -19 -5 -7 17 -57 42 -104 51 -85 17
        -116 97 -69 181 20 35 23 50 15 60 -10 12 -19 48 -20 84 -3 54 -21 89 -54 104
        -19 9 -35 21 -35 26 0 6 -9 10 -21 10 -11 0 -17 -4 -14 -10 3 -5 2 -10 -4 -10
        -5 0 -11 6 -14 13 -3 8 -14 3 -31 -15 -26 -28 -43 -37 -31 -18 3 5 -3 18 -15
        30 -31 31 -26 59 14 75 41 17 56 44 21 37 -20 -3 -23 -1 -18 17 6 22 27 28 38
        11 3 -5 12 -7 20 -4 11 5 12 11 5 24 -15 29 -12 50 8 50 10 0 22 4 28 9 24 24
        55 18 92 -16z m279 16 c6 -6 9 -17 7 -23 -3 -7 5 -21 17 -32 16 -14 23 -15 26
        -6 3 6 9 12 14 12 4 0 6 -7 2 -16 -3 -9 -6 -25 -7 -37 -1 -17 -8 -22 -40 -24
        -37 -2 -73 17 -58 31 3 4 8 18 9 32 3 22 1 25 -17 19 -25 -8 -25 -1 -2 30 19
        27 32 31 49 14z m253 -31 c14 -1 21 -6 15 -9 -15 -9 -77 10 -69 22 4 6 10 7
        17 0 7 -5 23 -11 37 -13z m-107 -302 c-8 -41 -7 -41 -39 -12 -28 24 -28 25
        -10 44 15 17 22 19 36 9 14 -8 17 -19 13 -41z"></path></g></svg>