<svg version="1.0" xmlns="http://www.w3.org/2000/svg" width="20px" height="20px" viewBox="0 0 87.000000 87.000000" fill="currentColor" preserveAspectRatio="xMidYMid meet" class="w-5 h-5"><g transform="translate(0.000000,87.000000) scale(0.100000,-0.100000)" stroke="none"><path d="M411 847 c-8 -11 -24 -12 -72 -4 -57 9 -64 9 -78 -10 -9 -11 -28 -23
        -42 -26 -14 -4 -42 -25 -63 -47 -20 -22 -44 -40 -52 -40 -8 0 -28 -7 -44 -15
        -36 -19 -47 -60 -46 -166 2 -101 12 -113 85 -104 31 4 65 12 76 19 11 7 33 15
        48 18 24 5 32 0 51 -31 13 -20 35 -49 50 -64 19 -20 26 -39 26 -66 0 -37 23
        -71 47 -71 23 0 63 43 69 75 3 18 15 41 25 51 10 9 19 22 19 27 0 6 11 25 26
        44 67 88 71 155 14 245 -22 35 -40 68 -40 73 0 17 -39 88 -52 97 -19 11 -34
        10 -47 -5z m69 -113 c0 -7 18 -40 40 -73 50 -75 47 -124 -15 -205 -14 -18 -25
        -38 -25 -44 0 -15 -50 -40 -75 -38 -30 3 -52 19 -57 41 -2 11 -10 19 -16 18
        -7 -2 -12 2 -12 8 0 6 -6 17 -12 24 -7 8 -19 22 -27 31 -11 13 -24 15 -59 10
        -25 -3 -50 -10 -56 -15 -10 -8 -31 -13 -90 -23 -18 -3 -20 4 -21 57 -1 33 -4
        65 -5 70 -2 6 0 24 4 42 6 27 15 34 54 47 28 10 58 29 72 47 33 40 58 53 74
        40 10 -8 16 -4 26 14 11 20 20 24 51 22 28 -1 38 -6 36 -17 -1 -8 -6 -18 -10
        -21 -5 -4 5 -16 22 -28 l31 -22 9 23 c5 13 12 36 16 52 l6 28 19 -38 c11 -21
        20 -44 20 -50z m-50 -419 c0 -19 -29 -40 -40 -29 -17 17 0 52 21 47 10 -3 19
        -11 19 -18z"></path><path d="M740 435 c-6 -15 -7 -37 -4 -50 6 -23 -15 -48 -116 -138 -25 -21 -31
        -34 -28 -58 4 -38 25 -54 59 -46 13 4 66 46 117 94 71 69 92 95 92 115 0 15
        -6 31 -12 35 -7 4 -20 22 -28 38 -22 42 -66 47 -80 10z m55 -45 c3 -16 13 -30
        22 -32 12 -2 7 -12 -20 -43 l-35 -39 2 29 c1 17 5 36 10 43 4 7 5 29 1 49 -8
        43 10 37 20 -7z m-45 -104 c0 -13 -75 -92 -102 -107 -10 -5 -14 0 -16 17 -1
        18 8 30 36 48 20 13 43 31 51 40 16 20 31 21 31 2z"></path><path d="M550 115 c-10 -12 -10 -21 -2 -38 5 -12 13 -30 16 -40 8 -25 35 -32
        54 -14 16 17 16 20 -18 87 -10 21 -35 24 -50 5z"></path></g></svg>