<svg version="1.0" xmlns="http://www.w3.org/2000/svg" width="20px" height="20px" viewBox="0 0 108.000000 71.000000" fill="currentColor" preserveAspectRatio="xMidYMid meet" class="w-5 h-5"><g transform="translate(0.000000,71.000000) scale(0.100000,-0.100000)" stroke="none"><path d="M285 691 c-3 -6 -19 -16 -35 -24 -25 -13 -31 -13 -41 -1 -19 23 -58
        16 -100 -18 -44 -36 -48 -49 -18 -79 27 -27 84 -19 116 16 12 13 23 20 25 14
        2 -6 -13 -28 -34 -49 -33 -33 -38 -44 -38 -84 0 -50 0 -50 -48 -37 -27 8 -36
        6 -60 -14 -25 -22 -26 -25 -14 -57 16 -46 15 -54 -10 -89 -19 -26 -21 -34 -11
        -60 7 -17 9 -37 6 -45 -3 -8 0 -21 7 -29 15 -18 68 -45 88 -45 9 0 32 -11 52
        -25 20 -14 49 -26 65 -28 17 -2 37 -6 45 -9 58 -23 77 -25 104 -11 15 8 31 25
        36 39 7 18 17 24 40 24 24 0 32 6 44 34 13 32 18 34 73 41 32 3 63 5 68 4 6
        -2 34 3 63 9 61 14 72 10 72 -22 0 -12 5 -27 12 -34 18 -18 63 -14 82 7 15 16
        22 18 37 8 28 -17 72 30 88 94 8 28 24 60 38 74 29 26 26 54 -7 62 -24 6 -25
        16 -5 33 8 7 15 18 15 25 0 7 6 17 13 23 15 13 21 136 7 162 -13 24 -151 36
        -191 16 -18 -9 -31 -10 -37 -4 -7 7 -20 7 -40 0 -34 -12 -62 0 -62 28 0 26
        -69 66 -90 51 -8 -6 -25 -15 -38 -21 -13 -6 -25 -22 -28 -40 -10 -48 -30 -57
        -55 -26 -11 14 -29 26 -39 26 -10 0 -22 5 -25 10 -4 6 -30 22 -58 35 -52 26
        -101 32 -112 16z m88 -44 c43 -20 50 -40 10 -31 -43 10 -63 23 -63 40 0 9 3
        14 8 12 4 -2 24 -12 45 -21z m285 -19 c-7 -20 -48 -23 -48 -4 0 11 9 16 26 16
        16 0 24 -5 22 -12z m-468 -10 c0 -10 -10 -15 -47 -23 -21 -4 -33 -3 -33 4 0 6
        9 11 20 11 11 0 20 4 20 9 0 6 9 9 20 8 11 -1 20 -5 20 -9z m130 -32 c0 -8 -6
        -19 -14 -25 -20 -17 -30 3 -14 28 13 21 28 19 28 -3z m147 11 c7 3 21 -9 30
        -25 17 -30 44 -36 86 -17 13 5 25 2 39 -13 19 -18 22 -19 39 -4 22 19 25 38 7
        45 -7 2 -9 8 -5 13 4 5 11 4 15 -2 8 -12 51 -22 127 -28 35 -3 55 0 67 11 12
        11 33 14 84 11 58 -4 68 -8 75 -26 9 -23 8 -24 -13 -26 -20 -2 -22 -38 -3 -52
        16 -12 16 -14 1 -29 -9 -9 -16 -23 -16 -30 0 -8 -9 -16 -20 -20 -20 -6 -21
        -20 -3 -64 10 -24 6 -81 -6 -81 -3 0 -14 15 -24 33 -13 24 -16 44 -12 73 6 35
        5 40 -14 41 -16 1 -21 -4 -21 -23 0 -15 -5 -24 -12 -22 -32 6 -66 -13 -71 -39
        -7 -35 -2 -43 27 -43 24 0 36 -20 51 -80 5 -23 5 -23 -6 -5 -12 18 -13 17 -24
        -15 -16 -46 -47 -55 -39 -11 5 25 4 30 -8 26 -9 -4 -27 6 -44 24 -34 37 -51
        39 -56 9 -4 -28 -48 -40 -102 -28 -28 6 -43 5 -47 -2 -4 -6 -14 -8 -23 -5 -20
        8 -89 -51 -82 -69 4 -10 -4 -14 -28 -14 -28 0 -38 -6 -55 -35 -21 -35 -35 -43
        -46 -25 -3 6 -15 10 -26 10 -19 0 -44 42 -40 68 2 14 -25 16 -34 2 -3 -5 -1
        -19 5 -31 7 -11 10 -23 7 -25 -7 -7 -66 26 -79 44 -7 10 -23 17 -36 16 -12 -1
        -25 3 -28 7 -3 5 -14 9 -24 9 -14 0 -18 6 -16 27 2 16 -1 31 -7 35 -7 4 -7 12
        2 22 8 9 10 16 7 16 -4 0 0 7 8 16 19 18 20 36 6 84 -13 45 0 56 41 35 20 -11
        34 -14 37 -7 1 5 11 8 21 5 10 -3 22 0 25 6 4 6 16 11 27 11 13 0 18 4 13 11
        -5 9 1 10 19 5 25 -6 26 -5 22 30 -5 32 -3 35 16 29 21 -7 59 22 59 44 0 5 13
        20 29 34 17 14 27 27 24 30 -11 12 9 27 25 18 9 -4 23 -6 29 -4z m-224 -79
        c-28 -32 -35 -56 -22 -80 9 -17 8 -19 -8 -16 -27 5 -22 77 8 100 31 26 46 22
        22 -4z m647 -198 c8 -5 12 -11 9 -14 -3 -3 -14 1 -25 9 -21 16 -8 20 16 5z
        m38 -75 c-3 -3 -9 2 -12 12 -6 14 -5 15 5 6 7 -7 10 -15 7 -18z"></path></g></svg>