<svg version="1.0" xmlns="http://www.w3.org/2000/svg" width="20px" height="20px" viewBox="0 0 110.000000 49.000000" fill="currentColor" preserveAspectRatio="xMidYMid meet" class="w-5 h-5"><g transform="translate(0.000000,49.000000) scale(0.100000,-0.100000)" stroke="none"><path d="M73 465 c-13 -9 -23 -27 -23 -41 0 -13 -10 -45 -21 -69 -19 -40 -20
        -48 -7 -63 26 -32 41 -71 35 -92 -4 -15 2 -30 19 -47 14 -14 28 -38 31 -55 7
        -36 44 -62 78 -56 14 3 30 -1 36 -8 16 -19 103 -18 119 1 17 20 26 19 51 -6
        18 -18 28 -20 73 -15 29 4 59 15 70 26 19 18 20 18 47 -11 31 -33 52 -31 86 9
        19 23 30 27 90 28 37 1 105 9 151 17 46 9 99 13 117 10 60 -10 84 35 49 86
        -11 15 -17 46 -18 90 -1 58 -4 67 -23 76 -13 5 -23 17 -23 26 0 16 -62 78 -78
        80 -4 0 -25 2 -47 4 -30 3 -45 -1 -61 -16 -22 -20 -44 -23 -150 -20 -12 1 -38
        12 -59 26 -51 36 -145 44 -219 21 -30 -10 -60 -24 -67 -32 -7 -9 -30 -14 -61
        -14 -39 0 -53 5 -72 25 -30 32 -93 42 -123 20z m485 -40 c8 3 20 -1 26 -9 14
        -17 105 -48 118 -40 5 3 33 6 62 5 38 0 59 5 72 18 41 37 142 1 140 -50 -1
        -16 6 -25 19 -27 30 -6 40 -19 26 -35 -12 -15 -11 -43 2 -64 5 -7 5 -18 2 -23
        -3 -6 3 -23 15 -39 14 -21 17 -32 9 -37 -6 -3 -15 -1 -19 6 -7 11 -24 11 -97
        1 -48 -7 -98 -18 -110 -23 -12 -6 -36 -8 -55 -5 -52 7 -127 -14 -130 -37 -2
        -11 -8 -21 -14 -23 -16 -5 -27 27 -15 41 7 8 -2 11 -35 11 -32 0 -50 -5 -59
        -18 -23 -31 -76 -33 -119 -3 -46 31 -66 33 -73 6 -3 -11 -11 -20 -18 -20 -8 0
        -20 -2 -27 -5 -8 -3 -25 3 -38 15 -16 14 -33 19 -56 16 -29 -4 -42 3 -31 17 1
        2 -4 11 -11 20 -8 9 -11 21 -7 27 3 5 -5 14 -19 20 -25 9 -36 30 -17 30 5 0
        11 6 14 14 9 22 -4 56 -20 56 -10 0 -14 10 -12 34 2 19 0 38 -3 41 -4 4 -2 18
        3 32 5 14 7 28 4 31 -2 3 0 11 6 19 16 18 69 17 69 -2 0 -38 154 -62 182 -28
        28 34 162 59 187 35 7 -7 20 -11 29 -7z"></path><path d="M133 350 c-7 -11 -9 -21 -3 -25 5 -3 11 -1 14 3 3 5 17 7 31 4 26 -5
        59 14 49 29 -11 18 -79 10 -91 -11z"></path></g></svg>